# xmcd
#
# Track frame offsets: 
#        150
#        14331
#        28272
#        40660
#        54065
#        67941
#        76242
#        90241
#        100813
#        115302
#        127958
#        141452
#        154054
#        169701
#        177354
#        192993
#        204591
#        221768
#        232766
#        247041
#        256421
#        273779
#        281776
#        293403
#        307543
#        322750
#        334848
#        348736
#
# Disc length: 4801 seconds
#
# Revision: 1
# Processed by: cddbd v1.5.2PL0 Copyright (c) Steve Scherf et al.
# Submitted via: ExactAudioCopy v1.0b3
#
DISCID=8112bf1c
DTITLE=Nat King Cole - Penthouse Serenade and The Piano Style Of Nat Kin
DTITLE=g Cole
DYEAR=2007
DGENRE=Jazz
TTITLE0=Penthouse Serenade (When You're Alone)
TTITLE1=Somebody Loves Me
TTITLE2=Laura
TTITLE3=Once in a Blue Moon
TTITLE4=Don't Blame Me
TTITLE5=Little Girl
TTITLE6=Polka Dots And Moonbeams
TTITLE7=Down by the Old Mill Stream
TTITLE8=If I Should Lose You
TTITLE9=Rose Room
TTITLE10=I Surrender, Dear
TTITLE11=It Could Happen to You
TTITLE12=Love Walkied In
TTITLE13=My Heart Stood Still
TTITLE14=Imagination
TTITLE15=I Never Knew
TTITLE16=Stella by Starlight
TTITLE17=What Can I Say After I Say I'm Sorry?
TTITLE18=I Didn't Know What Time It Was
TTITLE19=Takin' a Chance on Love
TTITLE20=April in Paris
TTITLE21=I Want to Be Happy
TTITLE22=I See Your Face Before Me
TTITLE23=Just One of Those Things
TTITLE24=I Get a Kick Out of You
TTITLE25=If I Could Be with You (One Hour Tonight)
TTITLE26=I Hear Music
TTITLE27=Tea for Two
EXTD=
EXTT0=
EXTT1=
EXTT2=
EXTT3=
EXTT4=
EXTT5=
EXTT6=
EXTT7=
EXTT8=
EXTT9=
EXTT10=
EXTT11=
EXTT12=
EXTT13=
EXTT14=
EXTT15=
EXTT16=
EXTT17=
EXTT18=
EXTT19=
EXTT20=
EXTT21=
EXTT22=
EXTT23=
EXTT24=
EXTT25=
EXTT26=
EXTT27=
PLAYORDER=
